<svg id="Layer_2" data-name="Layer 2" xmlns="http://www.w3.org/2000/svg" viewBox="0 0 385.68 134.95">
  <defs>
    
  </defs>
  <g id="Layer_1-2" data-name="Layer 1">
    <g>
      <path fill="#f7f4ec" d="M385.44,73.39l-1.27-7.2c-1.14-6.48-4.78-12.12-9.46-16.55l-3.02-2.87-6.2-4.77,1.02-3.6c1.44-5.09,1.11-10.33-2.18-14.34l-3.12-3.8-3.84-3.32c-4.72-4.08-10.77-6.68-16.89-8.1l-6.11-1.41-7.63-.73-15.86.17-5.52.72-5.2,1c-3.98.76-7.99.87-11.99-.18l-3.65-.95-16.27.08-4.94.98-5.05,1.1-4.13.9-3.81.97-8.89,3.06-7.69,3.21-4.27,1.94-14.09,5.81-11.2,2.92-6.79,1.34c-3.63.72-8.53.49-12.26-.12l-7.22-1.18c-.95-.15-2.63-.71-3.39-1.14-1.86-1.04,2.1-7.19-4.57-13-1.01-.88-3.29-2.87-4.6-3.45-6.52-2.88-13.83-5.52-21.1-6.84l-5.05-.92-7.09-.93-9-.95c-7.39-.77-14.61-.99-22.02.28l-7.42,1.26-7.31,1.99-9.11,1.72-4.13-3.35C69.89.52,63.55-.14,59.29.02l-13.06.52-5.76,1.03-15.32,4.79c-4.64,1.45-9.42,4.56-12.82,8.09l-6.67,6.94-1.91,2.69c-1.32,1.86-2.8,6-3.25,8.45-1.36,7.53.61,12.51.14,18.03l-.64,7.61.03,16.07.28,18.12c.17,11.01,11.23,21.42,22.9,21.55l44.91.47,8.01.06,9.41.14,19.58.37,21.02.44,9.02.33,7.84.7c2.29.2,6.04,1.64,7.72,2.9l3.07,2.33,8.15,7.69c1.51,1.43,5.74,3.1,7.74,3.25l11.41.81,10.74.26,41.28.71,13.03.15,13.97.43,27.73-.07c2.45,0,7.18-2.26,8.77-3.9,5.45-5.61,4.3-12.71,9.58-12.41l4.36.24c9.66.55,19.45,1.63,28.89-.23l10.88-2.16c3.33-.66,7.14-2.18,9.82-3.99l9.05-6.13,3.04-2.82,3.49-3.64c6.69-6.97,11.05-18.86,9.72-26.45ZM22.14,21.21c10.17-6.97,25.19-10.3,37.75-10.02l2.62.49c.45.08-1.1,1.47-1.53,1.51l-6.78.77,1.42,1.14,5.08.78,2.8,2.85.18-6.83c.27-.25,3.46,1.06,4.07,2.02,2.01,3.14-4.43,3.75-7,7.67-.8,1.21,2.78,3.26,4.19,2.84l10.35-3.03,4.21-1.75,8.45-3.5,9.25-2.35,9.09-1.71c2.52-.47,6.12-.29,8.74,0l7.68.84,9.1,1,9.59,1,12.27,3.82,3.2,1.11c4.47,1.55,6.82,4.71,5.78,6.51-1.73,3-6.49,3.39-6.03,5.91.26,1.42,3.13,3.54,4.48,3.79l6.98,1.29c1.06.19,3.54,1.94,4.35,2.53l11.71,1.28c4.91.53,9.94.66,14.67-.18l11.04-1.98,15.71-5.11,8.39-3.73,11.73-5.35,7.35-2.36,5.07-1.19,9.06-1.99c7.28-1.59,16.91-1.84,21.96,2.65l-3.88,4.76c1.08.59,3.88,2.06,5.09,2.26l6.08,1.01,10.53-.67c9.34,2.43,20.8,7.85,16.24,13.88l6.34,8.38,2.1,4.13c.67,1.32.14,5.02-.6,6.31-4.67,8.06-21.17,7-23.93.25-.54-1.31.95-5.16,1.88-5.89,4.03-.31,7.58-2.8,6.89-7.24-1.08-6.93-11.08-11.89-19.34-13.32-12.59-2.19-25-1.02-37.41,2.32l-13.75,5.24-7.16,3.04-18.08,5.63-14.92,1.93-16.93-1.07-11.06-1.98-7.56-2.27-12.6-4.44-17.06-4.97c-2.14-.63-6.96.29-9.12.6l-15.95,2.26c-1.65.24-5.47-2.96-4.52-4.3,4.7-6.68,13.83-4.89,13.84-11.56,0-1.34-2.77-3.77-4.12-3.97l-6.93-1.05c-8.56-1.3-16.98.34-25.06,3.33l-10.06,3.71-15.62,7.16-2.93,1.78-1.84-3.56-5.6,2.96c-8.44,4.46-12.95,3.77-11.88,1.95,2.2-3.76,6.53-5.73,9.07-11.25-.71-2.53-4.19-4.2-6.39-3.7l-7.61,1.74c-4.97,1.13-8.63,4.36-12.82,7.4-4.88,3.53-4.01,9.17-7.98,10.16-4.58,1.15-6.76-11.77,7.67-21.67ZM59.72,79.68c1.01-.01,3.47,1.65,3.76,2.01l5.81-1.07c1.11-.2,3.08.72,4.51,2.37l-9.46-.24c-1.05.77-3.64,1.78-5.07,1.77l-10.14-.08c-2.08-.01-3.6-.12-5.69-.54-3.68-.75-8.01-.6-11.93-.36l-3.32-1.16c-1.77.71-4.69.91-6.02.27-.4-.2.29-2.94.73-2.91l4.63.3,3.31-.09,13.77-.18,15.11-.09ZM11.17,58.24c.52-4.61,3.01-8.69,6.71-11.14,1.55-1.01,2.51-1.97,3.8-3.56,5.7-7.01,16.19-9.45,16.48-7.92l.49,2.63-1.86,3.37c2.53.73,4.77,1.2,6.03.69l8.12-3.29,1.89-.77c.59-.24,2.28,1.84,1.77,2.21l-7.37,5.32c-.55.39-3.92-.31-3.92-.48l-5.91,6.39-3.47,4.5c-.16,6.56-6.99,10.44-13.66,11.04-5.53.5-9.69-3.79-9.1-8.99ZM27.83,96.36c-.35-.13-2.3-.8-2.3-.83-.01,0-.46.27-2.12,1.22l-1.61-2.42,5.23-.04,2.27.35c.44.06-1,1.88-1.47,1.72ZM62.85,96.48l-4.61.16-9.09-.17-9.18-.17-6.62-.78c-.37-.04-.06-2.3.28-2.15.34.15,1.6.68,1.97.69l8.37.21,5.05-.56,3.49.72,11.31.43c-.22.37-.71,1.2-.97,1.62ZM67.44,94.46c0,.12.03.31.05.54-.02-.16-.03-.34-.05-.54ZM67.55,95.62c.01.12.02.23.03.35,0-.09-.02-.2-.03-.35ZM87.58,92.94l-27.71-.37-11.75-.15-7.01-.08-19.36-.37-.45-3.12c-.11-.74,1.32-1.05,3.49-1.45.68.39,1.56-.25-.15,2.3l1.84,1.03,1.11-2.8,5.32-1.01c10.24-1.94,12.88,3.31,16.64-.05l9.16.07,13.33.81,4.98.89,5.24,1.16c1.46-.22,4.59-.32,6.17.07.65.16-.17,3.08-.85,3.07ZM75.02,82.12c-.1-.64,2.82-.7,2.97-.08.31,1.29-2.75,1.49-2.97.08ZM101.04,97.58l-3.12-.06.37-17.18,3.11.06-.36,17.18ZM110.06,97.62l-4.16-.13.56-16.92,4.15.13-.55,16.92ZM118.07,98.26l-2.2-.08.69-17.42,2.19.09-.68,17.41ZM129.62,97.73l-5.34.39.22-17.01,5.74.16-.62,16.46ZM139.19,88.09l-.2,10.25-5.38-.58.08-15.54c0-1.95,5.65-1.51,5.62.03l-.12,5.84ZM150.3,97.04c-.01,1.36-3.95,1.53-4.4.45l.52-15.73,3.99-.06-.11,15.34ZM159.35,93.53l-.12,5.18-2.05-.16.18-7.29.24-9.62h2.03s-.28,11.89-.28,11.89ZM172.98,91.38l-.32,3.56-.32,3.91-5.87.02.26-17.19,6.34-.1-.09,9.8ZM176.29,96.83l.08-5.5.28-9.68,5.69.48.1,10.95-3.35.17.71,1.47-2.22,1.85c.4,2.34-.76,1.74-1.29.26ZM186.48,120.2c-.02.52-1.71,2.45-2.01,2.02l-1.83-2.66-.99.27-2.98,2.58-1.09-12.91c-.05-.52-.04-1.85.35-1.86l1.79-.03.47,10.35,1.63-4.88,1.13.63,1.32,3.41.57-8.29c.02-.35.77-1.27.99-1.55.32-.42,1.06,1.43,1.04,2.03l-.39,10.89ZM187.13,73.25v-2h5.37v2h-5.37ZM190.13,82.25h2v17h-2v-17ZM199.44,115.68l.12,5.68-2.3.73-.45-7.41c-1.52.7-2.89,2.73-2.9,4.07l-.04,2.78c0,.55-1.54.31-2.15.21l.19-6.49.21-7.43h2.03l.07,6.68,2.89-.3.58-6.73,2.25,1.51-1.23,5.84c.2.24.47.55.73.86ZM202.78,99.11c-.7.19-3.16-.33-3.14-1.08l.25-8.28.31-7.37,2.71.03-.13,16.7ZM211.67,114.24c.08.95.23,1.92-.15,1.9l-2.78-.15c-.97-.05-1.28,3.55-.6,3.99l6.13.57c-.33.44-.89,1.17-1.03,1.34,0,0,0-.01.01-.02l-7.76.29.19-14.29,8.58.04.37,2.4-6.81-.45-.16,4.54,4.01-.16ZM212.13,99.25v-17h2v17h-2ZM227.44,122.8l-7.83-.44.12-5.58,2.09-.67-2.27-4.7c-.31-.64.84-3.36,1.54-3.34l7.12.15c.5.01.63,2.18.03,2.2l-5.7.16-1.28,4.11,4.82-.42-.02,2.2-3.51.64c-.7.13-.61,2.54-.29,2.93l6.54.74-1.36,2.02ZM220.06,99.58l.42-16.69,2.6.06-.42,16.7-2.6-.07ZM233.93,122.75l.7-13.91,1.88-.79-.07,5.56-.09,6.86,3.22.35.15,1.92h-5.79ZM248.47,123.02c-1.79-.24-2.8-.36-2.88-.72l-.59-2.61c.36-1.67,1.96-2.55,2.2.77.28.09,1.89-.21,1.93-.71l.19-2.47.46-5.78-2.59-2.6,4.33-.21v4.54l.1,5.25c.03,1.72-1.56,4.76-3.15,4.54ZM262.99,122.14l-.06-9.63-2.94-2.27-.68,5.73.09,4.06.02,1.9c.01.54-1.03.83-2.12,1.11l.2-5.77.03-3.05-.04-5.45,6.18.06c.31,0,1.42,1.36,1.42,1.72l-.41,11.46c.35.93-2.16.9-1.69.13ZM275.87,123.48l-5.44-.44.42-12.8,1.02-1.07,5.35.06c.56-.25.55,2.26,0,2.06l-4.62.07-.06,4.79-.07,4.62,5.62.23-2.22,2.48ZM282,121.78h2.25c.71,3.44-2.95,3.44-2.25,0ZM287.83,116.85c1.01,1.17,2.35,3.24,2.2,4.17l-.36,2.29c-.06.38-1.89.31-1.9-.08l-.07-2.28c-.03-1.1-1.32-3.24-2.15-3.96l-2.97-2.52-.17-5c.15.01,1.9.08,1.93-.01.04-.01.15,1.11.25,1.75l.6,4.11,3-6.04,1.89.03-.39,3.25c-1.11,1.12-2.6,3.43-1.86,4.29ZM367.18,92.06c-1.11.26-1.87,1.05-2.21,2.33l-9.33,7.32c-6.94,4.03-14.7,6.18-22.68,6.14l-14.62-.08-4.16-1.02c-4.74.04-9.63.08-13.64-1.84l-13.01-6.24c-1.74-.83-3.95-3.68-5.47-5.43-4.8-5.56-1.64-10.74-5.37-13.59-8.3-6.32-14.34-3.56-14.22-1.64l.27,4.55c.1,1.81-2.17,5.27-3.97,6.16-10.38,5.14-22.73,3.12-23.82-3.26-.83-4.9,4.55-7.53,8.12-7.32,1.3.08,4.11-2.63,4.2-3.99.16-2.41-3.12-4.6-5.35-4.66l-6.86-.16-14.94,2.85c-4.84.93-10.16,2.79-14.91,2.4l-10.6-.86-1.47-1.67,9.87-.12c1.54-.02,3.99-.89,6.46-2.02-.66-.45-1.76-.5-2.72-.12l-18.64-.1-9.04-.15-5.62.18c-1.39.44-1.3,1.59.04,1.82l7.78.55c-.16.37-.48,1.06-.58,1.28-.18.37-.84.42-1.67.58l-13.77.17-11.33-1.03c-3.4-.31-7.98-1.82-11.07-3.56-1.14-.64-1.99-4.27-1.05-5.17,2.87-2.77,6.39-2.94,6-4.29-1.53-5.23-13.81-5.4-22.06-3.44-5.68,1.36-10.8,3.66-15.89,6.31l-8.47,4.4-9.43,3.54c-9.05,3.4-23.53,4-29.53-2.59l-1.3-4.37c1.26-3.65,3.22-7.66,6.04-10.64,7.7-8.13,18.62-15.2,28.93-16.58.75,1.13,1.13,1.89,1.57,1.79l2.17-.46,4.21-.9c.88-1,2.48-2.18,3.36-1.82.71.28,1.97,1.66,1.83,2.41-.13.75-1.37,2.02-2.05,2.38l-8.04,4.22c-1.15.61-3,3.88-2.03,4.82,2.08,1.99,6.84,2.48,9.27,1.92l5.91-1.36,5.02-1.16c4.85-1.11,11.18-3.07,15.9-2.47l10.01,1.27c8.49,1.08,20.11,4.26,22.05,10.32l-1.9,4.02c3.05,1.9,6.69,3.91,9.9,4.33l13.02,1.69c2.25.29,6.64.65,8.66.37l8.12-1.15,14.26-2.04c5.54-.79,11.25-2.65,16.12-5.24l6.54-3.48c5.67-3.01,11.81-4.56,18.1-5.74l6.08-1.13,12.9-1.3,11.05,1.21,11.86,3.36c1.74.49,4.55,3.8,5.06,5.64,1.82,6.58-7.64,5.79-9.53,12.37-1.97,6.85,5.56,12.08,13.94,14.69l4.31,1.34c5.96,1.85,16.39,1.15,22.64-1.02,2.69-.93,5.64-2.59,7.99-4.16,7.04-4.73,8.96-11.63,5.33-19.6-1.09-2.41-2.84-6.07-4.54-7.41l-3.45-2.73-8.89-6.64,4.6-.18c-.12-2.62-1.98-5.59-5.27-7.04l1.46-3.12c-1.96-2.18-5.45-5.19-8.75-6.17-14.45-4.28-24.23.4-25.39-6.53,2.01-1.33,5.24-2.44,7.43-2.71l8.31-1.04c3.16-.4,7.12-.8,10.08-.34l6.99,1.09,7.92,1.75c1.86.41,5.07,2.11,7.23,3.21,6.19,3.16,10.08,7.79,7.46,11.2-1.31,1.7-5.12,3.24-7.77,2.51-1.89-.51-4.75,1.59-4.1,3.52.84,2.5,3.12,3.88,5.15,5.05l4.46,2.6c.52-.11,3.5-.2,4.35.46l4.5,3.49c6.49,5.03,11.22,10.93,12.92,19.31,1.31,6.49-1.85,15.6-7.24,19.96Z"></path>
      <path fill="#16150f" d="M309.45,85.26c-.2,1.54-1.76,3-3.96,3.92-1.95-.28-1.9,2.06-.11,2.56l3.76-.55,3.53-.5,4.46-.56-3.51-2.09.14-1.43c5.95,1.85,16.39,1.15,22.64-1.02,2.69-.93,5.64-2.59,7.99-4.17,7.04-4.72,8.96-11.63,5.33-19.6-1.1-2.41-2.85-6.06-4.55-7.41l-3.44-2.73-8.9-6.64,4.6-.18c-.12-2.61-1.98-5.59-5.27-7.03l1.46-3.13c-1.96-2.18-5.45-5.19-8.75-6.16-14.46-4.29-24.23.39-25.39-6.54,2.01-1.32,5.24-2.43,7.43-2.71l8.31-1.04c3.16-.4,7.12-.8,10.08-.34l6.99,1.09,7.92,1.75c1.86.41,5.07,2.11,7.24,3.21,6.19,3.16,10.08,7.79,7.45,11.2-1.3,1.69-5.12,3.23-7.77,2.51-1.89-.52-4.75,1.58-4.1,3.51.84,2.5,3.12,3.88,5.15,5.06l4.46,2.59c.52-.1,3.5-.2,4.35.46l4.51,3.49c6.49,5.03,11.22,10.93,12.91,19.3,1.31,6.49-1.85,15.61-7.24,19.97-1.11.26-1.87,1.05-2.2,2.33l-9.34,7.32c-6.94,4.03-14.7,6.18-22.68,6.14l-14.62-.08-4.16-1.02c-4.73.04-9.63.08-13.64-1.84l-13.01-6.24c-1.74-.83-3.95-3.68-5.47-5.44-4.8-5.56-1.64-10.74-5.37-13.58-8.3-6.32-14.33-3.56-14.22-1.64l.27,4.55c.11,1.8-2.17,5.27-3.97,6.16-10.37,5.14-22.73,3.12-23.81-3.26-.83-4.9,4.55-7.53,8.11-7.32,1.3.08,4.11-2.63,4.2-3.99.16-2.41-3.12-4.6-5.35-4.65l-6.86-.16-14.93,2.85c-4.84.92-10.16,2.78-14.91,2.4l-10.6-.86-1.46-1.67,9.87-.12c1.53-.02,3.99-.89,6.45-2.02-.66-.45-1.76-.51-2.72-.12l-18.63-.1-9.05-.15-5.62.18c-1.39.45-1.3,1.59.04,1.82l7.78.55c.39-.85-.42.92-.59,1.29s-.84.42-1.66.58l-13.77.17-11.32-1.03c-3.4-.31-7.99-1.82-11.07-3.56-1.14-.64-1.99-4.28-1.05-5.18,2.87-2.77,6.39-2.94,6-4.29-1.52-5.23-13.81-5.41-22.05-3.44-5.69,1.36-10.8,3.66-15.9,6.31l-8.46,4.4-9.44,3.54c-9.05,3.4-23.53,4-29.52-2.59l-1.3-4.37c1.26-3.65,3.22-7.67,6.04-10.65,7.7-8.13,18.62-15.2,28.93-16.57.75,1.12,1.13,1.88,1.57,1.79l2.17-.46,4.21-.9c.88-.99,2.48-2.18,3.36-1.82.7.28,1.97,1.66,1.83,2.41s-1.38,2.02-2.06,2.38l-8.04,4.22c-1.15.61-3,3.88-2.03,4.82,2.08,1.99,6.83,2.49,9.27,1.93l5.91-1.36,5.02-1.16c4.85-1.12,11.18-3.07,15.9-2.47l10.01,1.27c8.49,1.08,20.11,4.26,22.05,10.32l-1.9,4.02c3.05,1.9,6.69,3.91,9.9,4.33l13.02,1.69c2.26.29,6.64.65,8.66.37l8.12-1.15,14.26-2.04c5.54-.79,11.25-2.65,16.12-5.24l6.54-3.48c5.67-3.02,11.81-4.56,18.1-5.74l6.08-1.14,12.9-1.29,11.05,1.21,11.86,3.36c1.74.49,4.55,3.8,5.06,5.63,1.82,6.58-7.64,5.8-9.53,12.38s5.56,12.08,13.94,14.68ZM335.49,22.07l-3.54-.46,3.4,1.94c2.32-.63,1.43-1.11.14-1.48ZM350.89,33.86l1.37-4.18c-1.65-1.22-4.95-3.42-6.98-4.25l-6.59-2.71-.1,1.77,7.84,3.47c1.58.7,2.41,4.32,2.13,5.85l2.32.04ZM84.25,43.78h-2.24c-.71,3.44,2.95,3.44,2.24,0ZM91.92,59.14l-6.61-2.62c.34-2.45,2.07-5.32,3.28-6.4,2.13-1.92-3.77-2.76-7.29,1.15-2.42,2.69-3.22,5.45-3.58,9.13l4.75-1.7c.46-.17,1.78-.74,2.02-.41l1.18,1.59,4.8-.17c.81-.31,3.16-1.22,1.45-.56ZM144.48,53.38l2.31-2.33c.22-.22-.37-1.18-.96-2.11l-2.05,2.23-2.63,1.26,3.33.94ZM73.93,59.88l-.27,1.69-.18,1.79c-.04.44,1.59-.62,1.67-1.05l.34-1.82.58-6.33c-.85,1.16-1.5,1.96-1.57,2.4l-.56,3.33ZM115.24,56.25c0-.62-.5-1.12-1.12-1.12s-1.12.5-1.12,1.12.5,1.12,1.12,1.12,1.12-.5,1.12-1.12ZM247.37,55.85c-.47-.48-.16-.16,1.23,1.26.43.44-.28-.29-1.23-1.26ZM265.51,58.18l1.6-3.09-2,1.66c-.28.23.6,1.98.4,1.43ZM299.96,58.33c-.96-.68-2.2-1.56-2.35-1.14l-.75,2.08.79,2.19,2.31-3.13ZM300.8,58.45l-1.03,1.59.78,2.23c.14.41,1.82-.14,1.65-.54l-1.4-3.27ZM257.77,61.67c-.16.78,0-.01.46-2.3l-10.84,2.04c-.91,1.03,1.14,2.56,1.61,1.07l8.77-.81ZM353.24,60.25c0-.62-.5-1.12-1.12-1.12s-1.12.5-1.12,1.12.5,1.12,1.12,1.12,1.12-.5,1.12-1.12ZM149.1,65.73l-2.83-3.83-.77,3.38,3.6.45ZM151.81,64.9c.61.8,1.65,1.89,1.77,1.47l.5-1.77c.12-.42-1.15-.09-2.28.3ZM96.64,67.41c3.1-.91.78-2.94-.69-1.48-2.26.82-1.53,1.55.69,1.48ZM263.24,66.25c0-.62-.5-1.12-1.12-1.12s-1.12.5-1.12,1.12.5,1.12,1.12,1.12,1.12-.5,1.12-1.12ZM370.48,72.24l-2.34-4.06-2.01-3.47.65,3.75,1.47,4.93,2.23-1.15ZM263.92,74.33c.41.12,1.75-1.46,1.33-1.59l-2.05-.65-3.06-.97c-.66-.11-.79,2.45-.05,2.08l3.84,1.13ZM280.05,71.72l1.81.11-1.81-.11ZM274.2,72.09l-2.28,1.59,2.72,2.04-.44-3.64ZM358,77.04c-.15-.63-3.08-.55-2.98.09.21,1.36,3.29,1.21,2.98-.09ZM365.23,88.97l2.49-3.53c2.58-3.66,3.41-7.15.62-9.4-.29-.23-.44.45-.6,1.53l-3.98,8.08c-.36.74-1.96,2.02-3.15,3.16l3.88,2.8.74-2.64ZM354.63,81.82c-1.73-3.32-2.87-.82-2.13.43,1.57-.32,3.18-.64,2.13-.43ZM246.72,86.32c-1.73-1.84-2.12-2.07-2.09-2.56l.15-3.3c-.68.32-2.65,1.37-2.71,2.32l-.27,3.74,3.59.75c.79-.57,1.47-1.07,1.33-.96ZM355.81,81.9c.61.8,1.66,1.89,1.78,1.47l.5-1.77c.12-.42-1.15-.09-2.28.3ZM289,87.05c-.15-.63-3.08-.56-2.98.07.21,1.39,3.29,1.19,2.98-.07ZM247.13,88.25v2.24h4v-2.24h-4ZM312.74,96.27l-8.62-1.69-6.6-1.35c-.57-.43-1.94-1.15-1.81-.64s.53,2.59.9,2.95c4.88,4.86,17.57,8.14,18.65,3.17.15-.69-1.72-2.28-2.53-2.44ZM337.18,100.31l-7.11.55-12.05.5c-.71-1.51-.91-.47-.71.53l3.97,1.17c1.93.57,6.61.24,8.64-.07l5.59-.86,1.68-1.83ZM321.13,104.25v2h5.5v-2h-5.5Z"></path>
      <path fill="#16150f" d="M323.18,43.17l6.34,8.38,2.09,4.13c.67,1.32.15,5.03-.6,6.31-4.67,8.06-21.17,7-23.93.25-.54-1.31.95-5.16,1.88-5.89,4.03-.32,7.58-2.81,6.89-7.24-1.08-6.93-11.08-11.89-19.34-13.32-12.59-2.18-25-1.01-37.41,2.33l-13.74,5.24-7.17,3.05-18.08,5.63-14.92,1.92-16.92-1.07-11.06-1.98-7.56-2.27-12.6-4.43-17.05-4.98c-2.14-.62-6.96.29-9.12.6l-15.95,2.27c-1.65.23-5.47-2.96-4.52-4.31,4.7-6.68,13.83-4.89,13.84-11.56,0-1.34-2.78-3.76-4.12-3.97l-6.93-1.05c-8.57-1.3-16.98.34-25.06,3.33l-10.06,3.72-15.62,7.16-2.93,1.78-1.84-3.56-5.6,2.96c-8.44,4.46-12.95,3.77-11.89,1.95,2.2-3.76,6.54-5.73,9.08-11.25-.71-2.53-4.19-4.2-6.39-3.7l-7.62,1.74c-4.96,1.13-8.62,4.37-12.82,7.4-4.87,3.53-4.01,9.17-7.97,10.16-4.59,1.15-6.76-11.78,7.67-21.67,10.17-6.97,25.19-10.3,37.75-10.02l2.62.49c.45.08-1.1,1.47-1.53,1.52l-6.78.77,1.42,1.13,5.08.78,2.8,2.85.19-6.82c.26-.25,3.45,1.06,4.07,2.02,2.01,3.13-4.43,3.75-7.01,7.67-.79,1.21,2.79,3.25,4.2,2.84l10.34-3.04,4.21-1.74,8.46-3.51,9.25-2.35,9.1-1.71c2.52-.47,6.11-.28,8.73,0l7.69.84,9.1,1,9.59,1,12.27,3.82,3.2,1.11c4.47,1.55,6.82,4.71,5.78,6.51-1.74,3.01-6.49,3.4-6.03,5.92.26,1.42,3.13,3.54,4.48,3.79l6.98,1.29c1.05.19,3.53,1.94,4.34,2.53l11.71,1.28c4.91.54,9.94.67,14.67-.18l11.03-1.97,15.71-5.12,8.39-3.73,11.73-5.35,7.35-2.36,5.07-1.2,9.07-1.99c7.27-1.59,16.91-1.85,21.96,2.65l-3.89,4.76c1.08.59,3.89,2.06,5.09,2.26l6.08,1.01,10.53-.67c9.34,2.43,20.8,7.85,16.24,13.88ZM38.47,17.2l-4.02,1.7c1.37,1.03,1.74,1.31,1.32.99,1.65-.97,2.06-1.28,2.42-1.37l4.96-1.21,5.97-1.45,4.12-1.35c-4.86-.68-9.94.64-14.78,2.69ZM146.39,19.46l.02-1.27-.02,1.27ZM29.78,23.41l2.86-4.61-6.37,3.63,3.51.98ZM147.84,18.82l-.47,1.12,4.97,2.46c2.09,1.03,2.9,3.74,2.91,7.13l4.47-4.61c-2.32-1.69-4.62-3.31-6.85-4.17l-5.02-1.93ZM84.63,24.52c2.09-1.06,1.91-2.5-.45-1.25-2.29.28-2.15,1.04.45,1.25ZM267.8,28.31c6.42-.78,9.35-3.73,8.07-4.2l-1.97-.73c-1.25-.46-4.49-.87-5.83-.46l-9.07,2.76c-.42.13-1.16,1.66-1.26,2.09s1.13,1.62,1.57,1.57l8.49-1.04ZM25.02,25.81c2.01-1.44,1.18-3.72-1.43-1.69-.07-.09.44.52,1.43,1.69ZM251.93,26.56l-1.29-1.22-3.64,1.44c-.07.22.83,1.7,1.38,1.44l3.54-1.66ZM281.99,25.94c-1.59-.15-2.09-.2-1.77-.17,1.11.1,2.12.2,1.77.17ZM118.05,35.08c1.55-.46,1.41-.42.01,0-1.26,1.48-.68.8-.01,0ZM225.38,40.43l-.76-1.82-2.49,1.1c-.4.18.09,1.71.51,1.58l2.74-.85ZM244.59,43.12l.6-5.15-2.16,1.96c-.43.39.48,1.86,1.56,3.19ZM185.42,46.49l-4.62.16c.96,2.57,3.85,2.59,4.62-.16ZM330.26,55.24c0-.62-.5-1.12-1.12-1.12s-1.12.5-1.12,1.12.5,1.12,1.12,1.12,1.12-.5,1.12-1.12Z"></path>
      <path fill="#16150f" d="M47.23,45.78c-.56.4-4.04-.33-3.92-.49l-5.9,6.4-3.48,4.5c-.16,6.56-6.99,10.44-13.65,11.04-5.53.5-9.69-3.79-9.11-8.99.52-4.61,3.01-8.69,6.72-11.14,1.54-1.02,2.5-1.97,3.8-3.57,5.69-7,16.19-9.45,16.47-7.92l.49,2.63-1.86,3.37c2.52.73,4.77,1.2,6.03.68l8.12-3.29,1.89-.77c.59-.24,2.28,1.84,1.76,2.21l-7.37,5.32ZM18.63,50.3q0-1.23,0,0,0,2.35,0,0Z"></path>
      <path fill="#d94f2b" d="M87.58,92.94l-27.7-.37-11.75-.15-7.02-.08-19.35-.38-.45-3.11c-.11-.75,1.32-1.05,3.49-1.45.68.39,1.57-.25-.15,2.3l1.85,1.03,1.1-2.8,5.33-1.01c10.24-1.94,12.88,3.31,16.64-.05l9.16.07,13.33.81,4.98.9,5.25,1.16c1.45-.22,4.58-.32,6.17.07.65.16-.17,3.08-.85,3.07ZM39.27,90.29c0-.63-.51-1.14-1.14-1.14s-1.14.51-1.14,1.14.51,1.14,1.14,1.14,1.14-.51,1.14-1.14Z"></path>
      <path fill="#d94f2b" d="M73.8,83l-9.46-.24c-1.05.77-3.65,1.77-5.08,1.76l-10.14-.07c-2.08-.01-3.6-.12-5.69-.54-3.67-.75-8.01-.6-11.93-.36l-3.32-1.17c-1.77.71-4.69.91-6.02.27-.4-.19.29-2.93.73-2.91l4.63.3,3.32-.09,13.76-.17,15.12-.09c1,0,3.47,1.65,3.76,2.01l5.81-1.07c1.11-.2,3.08.72,4.51,2.37ZM61.19,82.07l-.55-.89-7.57.24.55.89,7.57-.24Z"></path>
      <polygon fill="#d94f2b" points="172.66 94.94 172.34 98.85 166.47 98.87 166.73 81.69 173.07 81.58 172.98 91.38 172.66 94.94"></polygon>
      <path fill="#16150f" d="M184.84,108.83c.02-.35.77-1.27.99-1.55.33-.42,1.06,1.43,1.04,2.03l-.39,10.88c-.02.53-1.7,2.46-2.01,2.02l-1.83-2.65-.98.26-2.99,2.58-1.09-12.91c-.04-.52-.04-1.85.35-1.85l1.79-.03.47,10.35,1.63-4.89,1.13.64,1.32,3.41.57-8.29Z"></path>
      <path fill="#d94f2b" d="M139.19,88.09l-.2,10.25-5.38-.58.08-15.53c0-1.95,5.65-1.51,5.62.03l-.11,5.84Z"></path>
      <polygon fill="#d94f2b" points="129.62 97.74 124.28 98.12 124.5 81.11 130.24 81.27 129.62 97.74"></polygon>
      <path fill="#d94f2b" d="M179.8,94.72l-2.22,1.85c.4,2.34-.76,1.74-1.29.26l.08-5.5.28-9.68,5.69.48.09,10.95-3.34.18.7,1.47Z"></path>
      <path fill="#16150f" d="M211.67,114.24c.09.95.23,1.92-.15,1.9l-2.77-.15c-.98-.05-1.28,3.55-.6,3.99l6.13.57c-.44.57-1.26,1.63-1.02,1.32l-7.76.29.19-14.29,8.58.05.37,2.4-6.81-.45-.16,4.54,4.01-.16Z"></path>
      <path fill="#16150f" d="M259.99,110.24l-.67,5.73.08,4.06.03,1.9c0,.54-1.03.83-2.12,1.11l.2-5.77.03-3.05-.05-5.44,6.18.06c.31,0,1.43,1.38,1.42,1.72l-.41,11.46c.35.93-2.16.9-1.69.13l-.06-9.63-2.95-2.28Z"></path>
      <path fill="#d94f2b" d="M63.82,94.86c.47-.78-.56.94-.96,1.63l-4.61.16-9.09-.17-9.18-.17-6.62-.77c-.37-.04-.06-2.31.28-2.16s1.6.69,1.97.7l8.37.21,5.05-.56,3.49.72,11.31.43Z"></path>
      <path fill="#16150f" d="M222.26,120.04l6.53.74-1.35,2.03-7.83-.44.12-5.58,2.1-.68-2.27-4.7c-.31-.64.84-3.36,1.53-3.34l7.12.15c.5.01.64,2.19.04,2.2l-5.71.16-1.27,4.12,4.82-.42-.02,2.19-3.51.64c-.71.13-.62,2.54-.29,2.93Z"></path>
      <path fill="#16150f" d="M199.44,115.68l.12,5.67-2.29.74-.45-7.41c-1.52.7-2.89,2.72-2.91,4.06l-.03,2.78c0,.55-1.54.31-2.16.21l.19-6.49.22-7.43h2.03s.07,6.68.07,6.68l2.89-.31.58-6.72,2.25,1.5-1.24,5.84c-.9-1.06-.08-.09.73.86Z"></path>
      <path fill="#d94f2b" d="M150.3,97.04c0,1.36-3.96,1.53-4.4.45l.52-15.73,3.99-.06-.11,15.34Z"></path>
      <rect fill="#d94f2b" x="99.79" y="87.02" width="16.93" height="4.16" transform="translate(15.66 194.38) rotate(-88.12)"></rect>
      <path fill="#16150f" d="M289.69,112.56c-1.11,1.12-2.59,3.44-1.85,4.29,1.01,1.17,2.34,3.24,2.2,4.17l-.36,2.29c-.06.39-1.89.31-1.9-.08l-.07-2.28c-.03-1.09-1.32-3.24-2.15-3.95l-2.96-2.53-.17-4.99c.15,0,1.91.08,1.93-.01.03-.1.15,1.08.25,1.75l.6,4.11,3-6.04,1.89.04-.39,3.24Z"></path>
      <path fill="#d94f2b" d="M202.78,99.12c-.7.19-3.17-.33-3.15-1.08l.25-8.28.31-7.36,2.72.02-.13,16.71Z"></path>
      <path fill="#16150f" d="M248.47,123.02c-1.79-.24-2.8-.36-2.88-.72l-.59-2.61c.36-1.67,1.96-2.55,2.21.77.28.09,1.88-.21,1.92-.71l.19-2.47.46-5.78-2.59-2.59,4.33-.21v4.54s.1,5.24.1,5.24c.03,1.72-1.55,4.76-3.14,4.54Z"></path>
      <rect fill="#d94f2b" x="91.07" y="87.4" width="17.19" height="3.12" transform="translate(8.63 186.74) rotate(-88.8)"></rect>
      <rect fill="#d94f2b" x="213.22" y="89.97" width="16.7" height="2.6" transform="translate(124.75 310.47) rotate(-88.56)"></rect>
      <polygon fill="#16150f" points="236.35 120.47 239.57 120.83 239.72 122.74 233.93 122.75 234.63 108.84 236.51 108.06 236.44 113.61 236.35 120.47"></polygon>
      <polygon fill="#d94f2b" points="159.23 98.72 157.18 98.55 157.36 91.26 157.6 81.65 159.63 81.63 159.35 93.53 159.23 98.72"></polygon>
      <path fill="#d94f2b" d="M313.76,86.6l-.14,1.43,3.51,2.09-4.46.56-3.53.5-3.76.55c-1.78-.5-1.84-2.84.11-2.56,2.2-.92,3.76-2.38,3.96-3.92l4.31,1.34Z"></path>
      <rect fill="#d94f2b" x="108.6" y="88.42" width="17.43" height="2.2" transform="translate(23.25 203.22) rotate(-87.75)"></rect>
      <rect fill="#d94f2b" x="190.13" y="82.25" width="2" height="17"></rect>
      <rect fill="#d94f2b" x="212.13" y="82.25" width="2" height="17"></rect>
      <path fill="#d94f2b" d="M27.83,96.36c-.35-.12-2.32-.81-2.3-.83.01-.02-.4.23-2.13,1.22l-1.61-2.41,5.23-.05,2.27.35c.43.07-1,1.88-1.47,1.72Z"></path>
      <path fill="#16150f" d="M278.09,121l-2.22,2.48-5.44-.44.42-12.8,1.02-1.07,5.35.06c.56-.25.55,2.26,0,2.06l-4.62.07-.06,4.79-.07,4.62,5.62.23Z"></path>
      <rect fill="#d94f2b" x="187.13" y="71.25" width="5.37" height="2"></rect>
      <path fill="#16150f" d="M284.25,121.78c.71,3.44-2.95,3.44-2.24,0h2.24Z"></path>
      <path fill="#d94f2b" d="M77.99,82.05c.31,1.29-2.75,1.49-2.97.08-.1-.65,2.82-.7,2.97-.08Z"></path>
      <path fill="#d94f2b" d="M67.43,94.38c.15,1.59.2,2.09.17,1.77-.1-1.11-.2-2.12-.17-1.77Z"></path>
      <path fill="#f7f4ec" d="M312.74,96.27c.8.16,2.68,1.75,2.53,2.44-1.08,4.97-13.77,1.69-18.65-3.17-.37-.37-.76-2.45-.9-2.95s1.24.21,1.81.64l6.6,1.35,8.62,1.69Z"></path>
      <path fill="#f7f4ec" d="M91.92,59.14c1.71-.66-.65.25-1.45.56l-4.8.17-1.18-1.59c-.25-.33-1.56.24-2.02.41l-4.75,1.7c.36-3.67,1.16-6.44,3.58-9.13,3.52-3.91,9.42-3.06,7.29-1.15-1.21,1.09-2.94,3.96-3.28,6.4l6.61,2.62Z"></path>
      <path fill="#f7f4ec" d="M365.23,88.97l-.74,2.64-3.88-2.8c1.2-1.15,2.79-2.43,3.15-3.16l3.98-8.08c.16-1.08.31-1.76.6-1.53,2.79,2.24,1.96,5.74-.62,9.4l-2.49,3.53Z"></path>
      <path fill="#f7f4ec" d="M350.89,33.86l-2.32-.04c.27-1.53-.56-5.16-2.13-5.85l-7.84-3.47.1-1.77,6.59,2.71c2.03.83,5.33,3.04,6.98,4.25l-1.37,4.18Z"></path>
      <path fill="#f7f4ec" d="M337.18,100.31l-1.68,1.83-5.59.86c-2.03.31-6.71.64-8.64.07l-3.97-1.17c-.19-.99,0-2.04.71-.53l12.05-.5,7.11-.55Z"></path>
      <path fill="#f7f4ec" d="M257.77,61.67l-8.77.81c-.47,1.49-2.53-.04-1.61-1.07l10.84-2.04c-.46,2.29-.62,3.08-.46,2.3Z"></path>
      <path fill="#f7f4ec" d="M246.72,86.32c.14-.1-.54.39-1.33.96l-3.59-.75.27-3.74c.07-.95,2.04-2,2.71-2.32l-.15,3.3c-.02.49.36.72,2.09,2.56Z"></path>
      <polygon fill="#f7f4ec" points="370.48 72.24 368.26 73.39 366.78 68.46 366.13 64.71 368.14 68.18 370.48 72.24"></polygon>
      <path fill="#f7f4ec" d="M263.92,74.33l-3.84-1.13c-.74.36-.61-2.19.05-2.08l3.06.97,2.05.65c.42.13-.91,1.72-1.33,1.59Z"></path>
      <path fill="#d94f2b" d="M144.48,53.38l-3.33-.94,2.63-1.26,2.05-2.23c.58.93,1.18,1.89.96,2.11l-2.31,2.33Z"></path>
      <rect fill="#d94f2b" x="321.13" y="104.25" width="5.5" height="2"></rect>
      <polygon fill="#d94f2b" points="149.1 65.73 145.5 65.28 146.28 61.89 149.1 65.73"></polygon>
      <path fill="#f7f4ec" d="M75.48,60.48l-1.55-.6.56-3.33c.07-.44.72-1.24,1.57-2.4l-.58,6.33Z"></path>
      <rect fill="#d94f2b" x="247.13" y="88.25" width="4" height="2.24"></rect>
      <polygon fill="#d94f2b" points="274.2 72.09 274.64 75.73 271.92 73.69 274.2 72.09"></polygon>
      <path fill="#d94f2b" d="M299.96,58.33l-2.31,3.13-.79-2.19.75-2.08c.15-.41,1.39.46,2.35,1.14Z"></path>
      <path fill="#d94f2b" d="M358,77.04c.31,1.3-2.77,1.45-2.98.09-.1-.64,2.83-.72,2.98-.09Z"></path>
      <path fill="#f7f4ec" d="M96.64,67.41c-2.21.08-2.95-.66-.69-1.48,1.46-1.47,3.79.56.69,1.48Z"></path>
      <path fill="#d94f2b" d="M289,87.05c.31,1.27-2.77,1.46-2.98.07-.1-.63,2.83-.71,2.98-.07Z"></path>
      <path fill="#d94f2b" d="M300.8,58.45l1.4,3.27c.17.4-1.5.95-1.65.54l-.78-2.23,1.03-1.59Z"></path>
      <path fill="#d94f2b" d="M84.25,43.78c.71,3.44-2.95,3.44-2.24,0h2.24Z"></path>
      <path fill="#d94f2b" d="M335.49,22.07c1.29.36,2.18.85-.14,1.48l-3.4-1.94,3.54.46Z"></path>
      <path fill="#d94f2b" d="M73.93,59.88l1.55.6-.34,1.82c-.08.43-1.71,1.49-1.67,1.05l.18-1.79.27-1.69Z"></path>
      <path fill="#d94f2b" d="M354.63,81.82c1.04-.21-.56.11-2.13.43-.74-1.26.41-3.75,2.13-.43Z"></path>
      <circle fill="#d94f2b" cx="114.13" cy="56.25" r="1.12"></circle>
      <circle fill="#d94f2b" cx="352.13" cy="60.25" r="1.12"></circle>
      <path fill="#d94f2b" d="M151.81,64.9c1.13-.39,2.4-.72,2.28-.3l-.5,1.77c-.12.42-1.16-.66-1.77-1.47Z"></path>
      <circle fill="#d94f2b" cx="262.13" cy="66.25" r="1.12"></circle>
      <path fill="#d94f2b" d="M355.81,81.9c1.13-.39,2.4-.72,2.28-.3l-.5,1.77c-.12.42-1.16-.67-1.78-1.47Z"></path>
      <path fill="#d94f2b" d="M248.6,57.11c.43.44-.28-.29-1.23-1.26-.47-.48-.16-.16,1.23,1.26Z"></path>
      <path fill="#d94f2b" d="M281.86,71.83l-1.81-.11,1.81.11Z"></path>
      <path fill="#d94f2b" d="M265.51,58.18c.2.56-.68-1.2-.4-1.43l2-1.66-1.6,3.09Z"></path>
      <path fill="#f7f4ec" d="M267.8,28.31l-8.49,1.04c-.43.05-1.66-1.14-1.57-1.57s.83-1.96,1.26-2.09l9.07-2.76c1.34-.41,4.58,0,5.83.46l1.97.73c1.29.47-1.65,3.42-8.07,4.2Z"></path>
      <path fill="#f7f4ec" d="M146.39,19.46l.02-1.27c1.14.5,1.49.67,1.42.64l5.02,1.93c2.23.86,4.53,2.48,6.85,4.17l-4.47,4.61c0-3.38-.82-6.09-2.91-7.13l-4.97-2.46-.97-.48Z"></path>
      <path fill="#f7f4ec" d="M38.2,18.52l.28-1.32c4.83-2.04,9.92-3.36,14.78-2.69l-4.12,1.35-5.97,1.45-4.96,1.21Z"></path>
      <polygon fill="#d94f2b" points="29.78 23.41 26.27 22.43 32.64 18.81 29.78 23.41"></polygon>
      <path fill="#f7f4ec" d="M251.93,26.56l-3.54,1.66c-.56.26-1.45-1.22-1.38-1.44l3.64-1.44,1.29,1.22Z"></path>
      <path fill="#d94f2b" d="M185.42,46.49c-.77,2.74-3.66,2.72-4.62.16l4.62-.16Z"></path>
      <path fill="#d94f2b" d="M244.59,43.12c-1.08-1.33-1.98-2.81-1.56-3.19l2.16-1.96-.6,5.15Z"></path>
      <path fill="#d94f2b" d="M225.38,40.43l-2.74.85c-.42.13-.91-1.4-.51-1.58l2.49-1.1.76,1.82Z"></path>
      <path fill="#d94f2b" d="M38.2,18.52c-.36.09-.77.39-2.42,1.37.42.32.05.04-1.32-.99l4.02-1.7-.28,1.32Z"></path>
      <path fill="#d94f2b" d="M84.63,24.52c-2.6-.22-2.75-.98-.45-1.25,2.37-1.25,2.55.19.45,1.25Z"></path>
      <path fill="#d94f2b" d="M25.02,25.81c-.99-1.17-1.5-1.78-1.43-1.69,2.61-2.03,3.44.25,1.43,1.69Z"></path>
      <circle fill="#d94f2b" cx="329.14" cy="55.24" r="1.12"></circle>
      <path fill="#d94f2b" d="M118.06,35.07c-1.26,1.48-.68.8-.01,0,1.55-.46,1.41-.42.01,0Z"></path>
      <path fill="#d94f2b" d="M281.99,25.94c.35.03-.67-.07-1.77-.17-.31-.03.18.01,1.77.17Z"></path>
      <path fill="#d94f2b" d="M18.63,50.3q0,2.35,0,0,0-1.23,0,0Z"></path>
      <circle fill="#f7f4ec" cx="38.12" cy="90.29" r="1.14"></circle>
      <polygon fill="#f7f4ec" points="61.19 82.07 53.62 82.31 53.06 81.42 60.64 81.19 61.19 82.07"></polygon>
    </g>
  </g>
</svg>